# xmcd CD database file
#
# Track frame offsets:
#	150
#	16082
#	32957
#	48461
#	65736
#	76930
#	99732
#	117350
#	132423
#	147000
#	160788
#	173742
#	188161
#	207398
#	224528
#
# Disc length: 3227 seconds
#
# Revision: 1
# Processed by: cddbd v1.5.2PL0 Copyright (c) Steve Scherf et al.
# Submitted via: CDex 1.51
#
DISCID=d80c990f
DTITLE='s Lezzte - Heli Deinbök
DYEAR=2008
DGENRE=Blues
TTITLE0=Eiskalt Zu Mir
TTITLE1=Is Okay
TTITLE2=Zu Zweit
TTITLE3=Häng' 'S Z'samm
TTITLE4=Die Nasn
TTITLE5=Du Falsche Sau
TTITLE6=Hab' A Aug' Auf Mi
TTITLE7=Geht Auf'S Haus
TTITLE8=Schummeln
TTITLE9=Sin À La Mode
TTITLE10=Respekt
TTITLE11=Die SSchwächsten
TTITLE12=Die Phase (Live)
TTITLE13='S Wahre Leben
TTITLE14=Ganz Normaler Blues
EXTD=YEAR: 2008
EXTT0=
EXTT1=
EXTT2=
EXTT3=
EXTT4=
EXTT5=
EXTT6=
EXTT7=
EXTT8=
EXTT9=
EXTT10=
EXTT11=
EXTT12=
EXTT13=
EXTT14=
PLAYORDER=
